<svg id="Header" xmlns="http://www.w3.org/2000/svg" viewBox="0 0 596.13 226.38"><defs><style>.cls-1{fill:#7b0027;}.cls-2{fill:#500019;}.cls-3{fill:#27000b;}.cls-4{fill:#a70037;}.cls-5,.cls-9{fill:none;}.cls-6{fill:#d30046;}.cls-7{fill:#f05;}.cls-8{fill:#fff;}.cls-9{stroke:#000;stroke-miterlimit:10;}</style></defs><title>logo-and-title</title><polygon class="cls-1" points="129.13 64.67 64.65 129.06 64.52 128.94 64.52 64.67 129.13 64.67"/><polygon class="cls-2" points="129.21 64.54 129.13 64.67 64.52 64.67 64.52 0.06 64.65 0 129.21 64.54"/><polygon class="cls-3" points="64.52 0.06 64.52 64.67 0.25 64.67 0.13 64.54 64.52 0.06"/><polygon class="cls-4" points="64.52 64.67 64.52 128.94 0.25 64.67 64.52 64.67"/><line class="cls-5" x1="0.21" y1="64.59" x2="0.21" y2="64.59"/><line class="cls-5" x1="129.17" y1="64.59" x2="129.17" y2="64.59"/><line class="cls-5" x1="64.52" y1="64.59" x2="64.52" y2="64.59"/><line class="cls-5" x1="0.13" y1="129.15" x2="0.13" y2="129.15"/><line class="cls-5" x1="0.13" y1="129.32" x2="0.13" y2="129.32"/><polygon class="cls-6" points="64.52 128.94 64.52 129.15 0.04 129.15 0.04 64.67 0.17 64.67 64.52 128.94"/><line class="cls-5" x1="64.61" y1="129.15" x2="64.61" y2="129.15"/><line class="cls-5" x1="64.61" y1="0.02" x2="64.61" y2="0.02"/><line class="cls-5" x1="64.61" y1="64.67" x2="64.61" y2="64.67"/><line class="cls-5" x1="64.61" y1="128.98" x2="64.61" y2="128.98"/><line class="cls-5" x1="64.61" y1="193.8" x2="64.61" y2="193.8"/><line class="cls-5" x1="64.69" y1="129.15" x2="64.52" y2="129.15"/><line class="cls-5" x1="0.04" y1="129.06" x2="0.04" y2="129.06"/><polygon class="cls-7" points="64.52 129.15 64.52 193.71 0.04 129.23 0.04 129.15 64.52 129.15"/><line class="cls-5" x1="0.13" y1="129.23" y2="129.11"/><line class="cls-5" x1="64.69" y1="193.8" x2="64.61" y2="193.71"/><polyline class="cls-8" points="350.72 125.13 350.72 125.13 371.28 125.13 371.69 125.25 371.55 125.6 357.02 164.53 356.81 164.97 345.57 193.46 337 214.62 337 215.13 318 215.13 317.81 214.83 317.83 214.69 323.65 199.53 325.44 195.13 325.46 195.13 315.67 169.37 298.65 125.59 298.67 125.13 298.55 125.13 318.94 125.13 319.07 125.13 335.37 166.27 336.77 169.22 336.84 169.29 346.56 139.11 336.92 169.43 336.93 169.45 346.59 138.9"/><path class="cls-8" d="M343.75-96.48c-21.72,0-37.82-16.1-37.82-36.25V-133c0-20.15,16.23-36.51,38.08-36.51s37.82,16.1,37.82,36.25V-133C381.83-112.83,365.6-96.48,343.75-96.48ZM362.2-133c0-10.34-7.46-19.37-18.45-19.37-11.39,0-18.19,8.77-18.19,19.11V-133c0,10.34,7.46,19.37,18.45,19.37,11.39,0,18.19-8.77,18.19-19.11V-133Z" transform="translate(-114 292.13)"/><path class="cls-8" d="M386.21-96.05v-95.53H406.1v95.53H386.21Z" transform="translate(-114 292.13)"/><path class="cls-8" d="M605-96.48c-21.72,0-37.82-16.1-37.82-36.25V-133c0-20.15,16.23-36.51,38.08-36.51s37.82,16.1,37.82,36.25V-133C643.06-112.84,626.83-96.48,605-96.48ZM623.43-133c0-10.34-7.46-19.37-18.45-19.37-11.39,0-18.19,8.77-18.19,19.11V-133c0,10.34,7.46,19.37,18.45,19.37,11.39,0,18.19-8.77,18.19-19.11V-133Z" transform="translate(-114 292.13)"/><path class="cls-8" d="M268.89-123.89H253.58v27.48H233.43V-188h37.43c21.85,0,35.07,13,35.07,31.67v0.26C305.93-134.88,289.44-123.89,268.89-123.89ZM285.51-156c0-9-6.28-13.87-16.36-13.87H253.58v28h16c10.08,0,16-6,16-13.87V-156Z" transform="translate(-114 292.13)"/><path class="cls-8" d="M690.24-95.77V-134.9c0-9.42-4.45-14.26-12-14.26s-12.43,4.84-12.43,14.26v39.13H645.87v-70.14h19.89V-156c4.58-5.89,10.47-11.25,20.55-11.25,15,0,23.82,9.95,23.82,26v45.41H690.24Z" transform="translate(-114 292.13)"/><line class="cls-5" x1="335.3" y1="224.13" x2="335.14" y2="224.62"/><path class="cls-8" d="M480.32-165l-0.32.93,0.35-.93h0Z" transform="translate(-114 292.13)"/><line class="cls-5" x1="366" y1="128.06" x2="365.32" y2="129.88"/><line class="cls-9" x1="333" y1="126.63" x2="333" y2="126.63"/><line class="cls-9" x1="310" y1="126.63" x2="310" y2="126.63"/><line class="cls-9" x1="353" y1="222.63" x2="353" y2="222.63"/><path class="cls-8" d="M539-166l-0.17,5.1a37.75,37.75,0,0,0-23-7.94c-13.83,0-32,9.22-32,39s29,34.36,39,34.36S539-104.73,539-104.73s-2,22-16.16,22S509-89,509-89H485.69s4.48,23.25,38.81,23.25c30,0,34.28-26.95,34.77-31.16a8.83,8.83,0,0,0,.06-0.94L560-166H539Zm-17.08,50.88a17.38,17.38,0,0,1-17.38-17.38,17.38,17.38,0,0,1,17.38-17.38,17.38,17.38,0,0,1,17.37,17.38A17.38,17.38,0,0,1,521.92-115.12Z" transform="translate(-114 292.13)"/></svg>