<svg id="Header" xmlns="http://www.w3.org/2000/svg" viewBox="0 0 767.5 1151.13"><defs><style>.cls-1{fill:#7b0027;}.cls-2{fill:#500019;}.cls-3{fill:#27000b;}.cls-4{fill:#a70037;}.cls-5{fill:none;}.cls-6{fill:#d30046;}.cls-7{fill:#f05;}</style></defs><title>Logo</title><polygon class="cls-1" points="767 384.13 384 766.63 383.25 765.88 383.25 384.13 767 384.13"/><polygon class="cls-2" points="767.5 383.38 767 384.13 383.25 384.13 383.25 0.38 384 0 767.5 383.38"/><polygon class="cls-3" points="383.25 0.38 383.25 384.13 1.5 384.13 0.75 383.38 383.25 0.38"/><polygon class="cls-4" points="383.25 384.13 383.25 765.88 1.5 384.13 383.25 384.13"/><line class="cls-5" x1="1.25" y1="383.63" x2="1.25" y2="383.63"/><line class="cls-5" x1="767.25" y1="383.63" x2="767.25" y2="383.63"/><line class="cls-5" x1="383.25" y1="383.63" x2="383.25" y2="383.63"/><line class="cls-5" x1="0.75" y1="767.13" x2="0.75" y2="767.13"/><line class="cls-5" x1="0.75" y1="768.13" x2="0.75" y2="768.13"/><polygon class="cls-6" points="383.25 765.88 383.25 767.13 0.25 767.13 0.25 384.13 1 384.13 383.25 765.88"/><line class="cls-5" x1="383.75" y1="767.13" x2="383.75" y2="767.13"/><line class="cls-5" x1="383.75" y1="0.13" x2="383.75" y2="0.13"/><line class="cls-5" x1="383.75" y1="384.13" x2="383.75" y2="384.13"/><line class="cls-5" x1="383.75" y1="766.13" x2="383.75" y2="766.13"/><line class="cls-5" x1="383.75" y1="1151.13" x2="383.75" y2="1151.13"/><line class="cls-5" x1="384.25" y1="767.13" x2="383.25" y2="767.13"/><line class="cls-5" x1="0.25" y1="766.63" x2="0.25" y2="766.63"/><polygon class="cls-7" points="383.25 767.13 383.25 1150.63 0.25 767.63 0.25 767.13 383.25 767.13"/><line class="cls-5" x1="0.75" y1="767.63" y2="766.88"/><line class="cls-5" x1="384.25" y1="1151.13" x2="383.75" y2="1150.63"/></svg>