<?xml version="1.0" encoding="utf-8"?>
<!-- Generator: Adobe Illustrator 19.2.0, SVG Export Plug-In . SVG Version: 6.00 Build 0)  -->
<svg version="1.1" id="Header" xmlns="http://www.w3.org/2000/svg" xmlns:xlink="http://www.w3.org/1999/xlink" x="0px" y="0px"
	 viewBox="0 0 596.1 226.4" style="enable-background:new 0 0 596.1 226.4;" xml:space="preserve">
<style type="text/css">
	.st0{fill:none;stroke:#FFFFFF;stroke-miterlimit:10;}
	.st1{fill:none;}
	.st2{fill:#FFFFFF;}
	.st3{fill:none;stroke:#000000;stroke-miterlimit:10;}
</style>
<title>logo-and-title</title>
<polygon class="st0" points="129.1,64.7 64.7,129.1 64.5,128.9 64.5,64.7 "/>
<polygon class="st0" points="129.2,64.5 129.1,64.7 64.5,64.7 64.5,0.1 64.7,0 "/>
<polygon class="st0" points="64.5,0.1 64.5,64.7 0.2,64.7 0.1,64.5 "/>
<polygon class="st0" points="64.5,64.7 64.5,128.9 0.2,64.7 "/>
<line class="st1" x1="0.2" y1="64.6" x2="0.2" y2="64.6"/>
<line class="st1" x1="129.2" y1="64.6" x2="129.2" y2="64.6"/>
<line class="st0" x1="64.5" y1="64.6" x2="64.5" y2="64.6"/>
<line class="st1" x1="0.1" y1="129.1" x2="0.1" y2="129.1"/>
<line class="st1" x1="0.1" y1="129.3" x2="0.1" y2="129.3"/>
<polygon class="st0" points="64.5,128.9 64.5,129.1 0,129.1 0,64.7 0.2,64.7 "/>
<line class="st0" x1="64.6" y1="129.1" x2="64.6" y2="129.1"/>
<line class="st1" x1="64.6" y1="0" x2="64.6" y2="0"/>
<line class="st0" x1="64.6" y1="64.7" x2="64.6" y2="64.7"/>
<line class="st0" x1="64.6" y1="129" x2="64.6" y2="129"/>
<line class="st1" x1="64.6" y1="193.8" x2="64.6" y2="193.8"/>
<line class="st0" x1="64.7" y1="129.1" x2="64.5" y2="129.1"/>
<line class="st1" x1="0" y1="129.1" x2="0" y2="129.1"/>
<polygon class="st0" points="64.5,129.1 64.5,193.7 0,129.2 0,129.1 "/>
<line class="st1" x1="0.1" y1="129.2" x2="0" y2="129.1"/>
<line class="st1" x1="64.7" y1="193.8" x2="64.6" y2="193.7"/>
<polyline class="st2" points="350.7,125.1 350.7,125.1 371.3,125.1 371.7,125.2 371.5,125.6 357,164.5 356.8,165 345.6,193.5 
	337,214.6 337,215.1 318,215.1 317.8,214.8 317.8,214.7 323.6,199.5 325.4,195.1 325.5,195.1 315.7,169.4 298.6,125.6 298.7,125.1 
	298.5,125.1 318.9,125.1 319.1,125.1 335.4,166.3 336.8,169.2 336.8,169.3 346.6,139.1 336.9,169.4 336.9,169.4 346.6,138.9 "/>
<path class="st2" d="M229.8,195.6c-21.7,0-37.8-16.1-37.8-36.2v-0.3c0-20.1,16.2-36.5,38.1-36.5s37.8,16.1,37.8,36.2v0.3
	C267.8,179.3,251.6,195.6,229.8,195.6z M248.2,159.1c0-10.3-7.5-19.4-18.5-19.4c-11.4,0-18.2,8.8-18.2,19.1v0.3
	c0,10.3,7.5,19.4,18.5,19.4c11.4,0,18.2-8.8,18.2-19.1V159.1z"/>
<path class="st2" d="M272.2,196.1v-95.5h19.9v95.5H272.2z"/>
<path class="st2" d="M491,195.6c-21.7,0-37.8-16.1-37.8-36.2v-0.3c0-20.1,16.2-36.5,38.1-36.5s37.8,16.1,37.8,36.2v0.3
	C529.1,179.3,512.8,195.6,491,195.6z M509.4,159.1c0-10.3-7.5-19.4-18.5-19.4c-11.4,0-18.2,8.8-18.2,19.1v0.3
	c0,10.3,7.5,19.4,18.5,19.4c11.4,0,18.2-8.8,18.2-19.1V159.1z"/>
<path class="st2" d="M154.9,168.2h-15.3v27.5h-20.2v-91.6h37.4c21.9,0,35.1,13,35.1,31.7v0.3C191.9,157.2,175.4,168.2,154.9,168.2z
	 M171.5,136.1c0-9-6.3-13.9-16.4-13.9h-15.6v28h16c10.1,0,16-6,16-13.9L171.5,136.1L171.5,136.1z"/>
<path class="st2" d="M576.2,196.4v-39.1c0-9.4-4.5-14.3-12-14.3s-12.4,4.8-12.4,14.3v39.1h-19.9v-70.1h19.9v9.9
	c4.6-5.9,10.5-11.2,20.5-11.2c15,0,23.8,9.9,23.8,26v45.4L576.2,196.4L576.2,196.4z"/>
<line class="st1" x1="335.3" y1="224.1" x2="335.1" y2="224.6"/>
<path class="st2" d="M366.3,127.1l-0.3,0.9L366.3,127.1L366.3,127.1L366.3,127.1z"/>
<line class="st1" x1="366" y1="128.1" x2="365.3" y2="129.9"/>
<line class="st3" x1="333" y1="126.6" x2="333" y2="126.6"/>
<line class="st3" x1="310" y1="126.6" x2="310" y2="126.6"/>
<line class="st3" x1="353" y1="222.6" x2="353" y2="222.6"/>
<path class="st2" d="M425,126.1l-0.2,5.1c-6.6-5.1-14.7-7.9-23-7.9c-13.8,0-32,9.2-32,39s29,34.4,39,34.4s16.2-9.3,16.2-9.3
	s-2,22-16.2,22s-13.8-6.3-13.8-6.3h-23.3c0,0,4.5,23.2,38.8,23.2c30,0,34.3-26.9,34.8-31.2c0-0.3,0.1-0.6,0.1-0.9l0.7-68.1H425z
	 M407.9,177c-9.6,0-17.4-7.8-17.4-17.4v0c0-9.6,7.8-17.4,17.4-17.4l0,0c9.6,0,17.4,7.8,17.4,17.4S417.5,177,407.9,177z"/>
</svg>
